<svg xmlns="http://www.w3.org/2000/svg" xmlns:xlink="http://www.w3.org/1999/xlink" width="46" height="100" viewBox="0 0 46 100"><defs><style>.a,.f{fill:#fff;}.a{stroke:#707070;}.b{clip-path:url(#a);}.c{fill:#fbe99c;}.d{fill:#1d4557;}.e{fill:#53c9fb;}.g{fill:#ff5079;}</style><clipPath id="a"><rect class="a" width="46" height="100" transform="translate(601 335)"/></clipPath></defs><g class="b" transform="translate(-601 -335)"><g transform="translate(572.438 219.098)"><path class="c" d="M52.356,209.68s11.955-17.455-.029-17.436S52.356,209.68,52.356,209.68Z"/><path class="d" d="M52.358,210.563l-.413-.6c-.305-.443-7.438-10.879-4.876-15.769.848-1.621,2.617-2.446,5.257-2.451s4.414.82,5.266,2.435c2.574,4.881-4.52,15.341-4.823,15.783Zm-.011-17.819c-2.258,0-3.729.649-4.393,1.915-1.955,3.732,2.916,11.8,4.4,14.11,1.476-2.312,6.317-10.4,4.352-14.124C56.042,193.384,54.575,192.744,52.347,192.744Z"/><path class="c" d="M66.063,197.682s8.73-12.747-.021-12.731S66.063,197.682,66.063,197.682Z"/><path class="d" d="M66.065,198.564l-.413-.6c-.225-.325-5.477-8.011-3.57-11.652.645-1.232,1.977-1.859,3.959-1.863s3.318.622,3.965,1.849c1.916,3.635-3.307,11.338-3.53,11.664Zm-.007-13.113c-1.6,0-2.63.449-3.089,1.326-1.236,2.36,1.514,7.536,3.092,10,1.57-2.468,4.3-7.655,3.06-10.007C68.66,185.894,67.63,185.451,66.058,185.451Z"/><path class="c" d="M38.649,197.682s8.729-12.747-.022-12.731S38.649,197.682,38.649,197.682Z"/><path class="d" d="M38.651,198.564l-.413-.6c-.225-.325-5.477-8.011-3.57-11.652.644-1.232,1.976-1.859,3.958-1.863s3.318.622,3.965,1.849c1.917,3.635-3.306,11.338-3.529,11.664Zm-.008-13.113c-1.6,0-2.63.449-3.089,1.326-1.235,2.357,1.515,7.533,3.094,10,1.569-2.468,4.3-7.655,3.058-10.007C41.245,185.894,40.215,185.451,38.643,185.451Z"/><path class="e" d="M52.341,119.584s-16.13,14.135-16.13,25.209,3.678,36.7,3.678,36.7h24.9s3.679-25.629,3.679-36.7S52.341,119.584,52.341,119.584Z"/><path class="d" d="M65.225,182H39.456l-.062-.429c-.036-.257-3.683-25.792-3.683-36.774,0-11.173,15.635-25,16.3-25.585l.33-.289.329.289c.666.583,16.3,14.412,16.3,25.585,0,10.982-3.647,36.517-3.684,36.774Zm-24.9-1H64.358c.478-3.4,3.613-26.073,3.613-36.2,0-9.852-13.346-22.452-15.63-24.536-2.285,2.084-15.63,14.684-15.63,24.536C36.711,154.923,39.845,177.6,40.324,181Z"/><path class="f" d="M53.838,120.971c-.926-.887-1.5-1.387-1.5-1.387s-.571.5-1.5,1.387c.494-.028.993-.045,1.5-.045S53.344,120.943,53.838,120.971Z"/><path class="d" d="M49.52,121.545l.978-.936c.936-.9,1.513-1.4,1.513-1.4l.329-.288.33.288s.577.5,1.513,1.4l.977.936-1.35-.075a27.182,27.182,0,0,0-2.939,0Z"/><path class="f" d="M61.138,128.947a80.756,80.756,0,0,0-7.3-7.976l-1.5-1.387-1.5,1.387a80.631,80.631,0,0,0-7.3,7.976Z"/><path class="d" d="M62.171,129.447H42.511l.641-.81a81.8,81.8,0,0,1,7.346-8.028l1.843-1.707,1.837,1.7a82.122,82.122,0,0,1,7.352,8.034Zm-17.583-1H60.094a82.044,82.044,0,0,0-6.6-7.115l-1.152-1.066-1.158,1.072A81.8,81.8,0,0,0,44.588,128.447Z"/><path class="g" d="M52.341,168.84s-3.55,1.83-5.808,9.035a32.1,32.1,0,0,0-1.614,12.369H59.763a32.114,32.114,0,0,0-1.615-12.369C55.889,170.67,52.341,168.84,52.341,168.84Z"/><path class="d" d="M60.2,190.744H44.477l-.054-.438a32.328,32.328,0,0,1,1.633-12.58c2.294-7.321,5.9-9.252,6.056-9.33l.229-.119.229.119c.152.078,3.76,2.009,6.055,9.33a32.364,32.364,0,0,1,1.634,12.58Zm-14.826-1H59.3a33.419,33.419,0,0,0-1.632-11.72c-1.828-5.831-4.53-8.045-5.33-8.594-.8.547-3.5,2.761-5.331,8.594A33.419,33.419,0,0,0,45.378,189.744Z"/><path class="g" d="M70.356,173.779c-1.674-5.344-4.306-6.7-4.306-6.7s-2.631,1.357-4.307,6.7a23.808,23.808,0,0,0-1.2,9.172H71.554A23.8,23.8,0,0,0,70.356,173.779Z"/><path class="d" d="M72,183.451H60.1l-.054-.438a24.115,24.115,0,0,1,1.216-9.383c1.718-5.481,4.439-6.937,4.554-7l.23-.118.229.118c.115.059,2.838,1.515,4.554,7a24.109,24.109,0,0,1,1.217,9.384Zm-10.987-1H71.091a24.845,24.845,0,0,0-1.212-8.522c-1.293-4.128-3.178-5.784-3.829-6.256-.65.47-2.535,2.126-3.83,6.256A24.9,24.9,0,0,0,61.008,182.451Z"/><path class="g" d="M42.938,173.779c-1.675-5.344-4.306-6.7-4.306-6.7s-2.632,1.357-4.307,6.7a23.808,23.808,0,0,0-1.2,9.172H44.136A23.8,23.8,0,0,0,42.938,173.779Z"/><path class="d" d="M44.577,183.451H32.686l-.054-.438a24.115,24.115,0,0,1,1.216-9.383c1.717-5.481,4.439-6.937,4.555-7l.229-.118.229.118c.115.059,2.837,1.515,4.554,7a24.109,24.109,0,0,1,1.217,9.384Zm-10.987-1H43.673a24.844,24.844,0,0,0-1.212-8.522c-1.294-4.128-3.178-5.784-3.829-6.256-.65.47-2.535,2.126-3.83,6.256A24.9,24.9,0,0,0,33.59,182.451Z"/><path class="f" d="M52.333,135.41h-.014a7.239,7.239,0,0,0,.013,14.477h.014a7.239,7.239,0,0,0-.013-14.477Z"/><path class="d" d="M52.347,150.387h-.015a7.7,7.7,0,1,1,.015,0Zm-.014-14.477a6.739,6.739,0,0,0,0,13.477l.014.5v-.5a6.739,6.739,0,0,0-.012-13.477Z"/><path class="f" d="M52.328,152.607a4.856,4.856,0,0,0,.007,9.711h.011a4.856,4.856,0,0,0-.018-9.711Z"/><path class="d" d="M52.347,162.818h-.012a5.329,5.329,0,1,1,.012,0Zm-.019-9.711a4.356,4.356,0,0,0,.007,8.711l.011.5v-.5a4.356,4.356,0,0,0-.017-8.711Z"/></g></g></svg>