<svg xmlns="http://www.w3.org/2000/svg" xmlns:xlink="http://www.w3.org/1999/xlink" width="86.19" height="54.467" viewBox="0 0 86.19 54.467"><defs><style>.a{fill:none;}.b{clip-path:url(#a);}.c{fill:#fbe99c;}.d{fill:#1d4557;}.e{fill:#ff5079;}.f{fill:#53c9fb;}.g{fill:#fff;}</style><clipPath id="a"><rect class="a" width="86.19" height="54.467"/></clipPath></defs><g transform="translate(-66.481 -96.445)"><g class="b" transform="translate(66.481 96.445)"><g transform="translate(2.433 2.941)"><g transform="translate(11.881)"><path class="c" d="M127.371,113.722c-2.45-9.913-14.436-16.23-27.622-14.261s-22.8,11.51-22.248,21.707Z" transform="translate(-76.797 -98.42)"/><path class="d" d="M77.043,122.134,77,121.386c-.575-10.573,9.451-20.419,22.827-22.417a33.186,33.186,0,0,1,4.9-.367c11.624,0,21.281,6.226,23.485,15.138l.18.728ZM104.73,99.966a31.974,31.974,0,0,0-4.7.352c-12.365,1.845-21.719,10.652-21.688,20.245l48.349-7.219C124.3,105.429,115.4,99.966,104.73,99.966Z" transform="translate(-76.979 -98.602)"/></g><g transform="translate(0 13.074)"><path class="e" d="M145.165,118.321c-.025-.21-.048-.42-.082-.63a16.726,16.726,0,0,0-4.492-8.967L70.611,119.17a16.737,16.737,0,0,0-1.674,9.889c.031.21.065.416.106.626Z" transform="translate(-68.083 -107.996)"/><path class="d" d="M68.678,130.649l-.123-.642c-.042-.218-.078-.434-.112-.652a17.355,17.355,0,0,1,1.736-10.289l.158-.323,70.691-10.553.245.263a17.34,17.34,0,0,1,4.666,9.331c.033.211.059.428.083.644l.075.655-.65.106Zm2.574-10.664a15.911,15.911,0,0,0-1.467,9.119l74.8-11.165a15.911,15.911,0,0,0-4.069-8.295Z" transform="translate(-68.266 -108.19)"/></g><g transform="translate(4.404 25.609)"><path class="c" d="M76.678,119.9A2.353,2.353,0,1,1,74,117.908,2.36,2.36,0,0,1,76.678,119.9Z" transform="translate(-71.314 -117.202)"/><path class="d" d="M74.53,123.475a3.052,3.052,0,0,1-2.437-4.865,3.008,3.008,0,0,1,1.987-1.194,3.046,3.046,0,0,1,.9,6.024A2.974,2.974,0,0,1,74.53,123.475Zm0-4.73a1.738,1.738,0,0,0-.25.019,1.648,1.648,0,0,0-1.092.657,1.67,1.67,0,1,0,1.342-.676Z" transform="translate(-71.496 -117.383)"/></g><g transform="translate(16.633 23.783)"><path class="c" d="M85.644,118.562a2.353,2.353,0,1,1-2.675-1.992A2.352,2.352,0,0,1,85.644,118.562Z" transform="translate(-80.282 -115.862)"/><path class="d" d="M83.494,122.135a3.038,3.038,0,1,1,2.439-1.223,3.006,3.006,0,0,1-1.987,1.189A2.975,2.975,0,0,1,83.494,122.135Zm.007-4.729a1.56,1.56,0,0,0-.25.019,1.682,1.682,0,0,0,.495,3.327,1.654,1.654,0,0,0,1.092-.653,1.688,1.688,0,0,0-1.338-2.693Z" transform="translate(-80.463 -116.044)"/></g><g transform="translate(28.86 21.956)"><path class="c" d="M94.61,117.223a2.353,2.353,0,1,1-2.678-1.993A2.354,2.354,0,0,1,94.61,117.223Z" transform="translate(-89.249 -114.522)"/><path class="d" d="M92.465,120.8a3.039,3.039,0,1,1,2.435-1.226,3,3,0,0,1-1.987,1.192A3.122,3.122,0,0,1,92.465,120.8Zm-.005-4.73a1.664,1.664,0,0,0-.245.018,1.684,1.684,0,0,0,.5,3.33,1.652,1.652,0,0,0,1.092-.656,1.688,1.688,0,0,0-1.346-2.692Z" transform="translate(-89.43 -114.704)"/></g><g transform="translate(41.083 20.134)"><path class="c" d="M103.579,115.885a2.355,2.355,0,1,1-2.678-1.994A2.361,2.361,0,0,1,103.579,115.885Z" transform="translate(-98.213 -113.186)"/><path class="d" d="M101.435,119.461a3.041,3.041,0,1,1,.449-.034A2.963,2.963,0,0,1,101.435,119.461Zm0-4.732a1.933,1.933,0,0,0-.248.018,1.677,1.677,0,1,0,.248-.018Z" transform="translate(-98.395 -113.367)"/></g><g transform="translate(53.311 18.306)"><path class="c" d="M112.546,114.548a2.354,2.354,0,1,1-2.677-1.995A2.36,2.36,0,0,1,112.546,114.548Z" transform="translate(-107.181 -111.846)"/><path class="d" d="M110.4,118.122a3.047,3.047,0,1,1,3-3.492,3.041,3.041,0,0,1-2.551,3.458A2.953,2.953,0,0,1,110.4,118.122Zm0-4.732a1.515,1.515,0,0,0-.245.019,1.684,1.684,0,0,0,.5,3.33,1.675,1.675,0,0,0,1.4-1.909A1.688,1.688,0,0,0,110.4,113.39Z" transform="translate(-107.363 -112.027)"/></g><g transform="translate(65.539 16.479)"><path class="c" d="M121.515,113.207a2.355,2.355,0,1,1-2.679-1.992A2.367,2.367,0,0,1,121.515,113.207Z" transform="translate(-116.149 -110.505)"/><path class="d" d="M119.369,116.785a3.041,3.041,0,1,1,.449-.034A3.153,3.153,0,0,1,119.369,116.785Zm0-4.732a1.519,1.519,0,0,0-.247.019,1.668,1.668,0,1,0,.247-.019Z" transform="translate(-116.33 -110.687)"/></g><g transform="translate(36.417 30.739)"><path class="f" d="M95.524,122.389c.012.105.026.213.048.325a6.232,6.232,0,0,0,.191.795c.08.269.18.535.277.806.2.536.4,1.085.552,1.638s.305,1.111.466,1.655.325,1.079.484,1.6.32,1.017.483,1.489.308.92.449,1.331.275.791.393,1.126.224.624.314.862c.177.48.285.753.285.753l.434-.064s.025-.292.053-.8c.016-.256.03-.567.049-.919s.035-.754.048-1.19.023-.9.04-1.4.016-1.02.027-1.564,0-1.1-.005-1.669-.025-1.14-.035-1.717.014-1.156.048-1.73c.014-.286.03-.57.03-.851a7.262,7.262,0,0,0-.046-.815c-.015-.112-.034-.218-.052-.326Z" transform="translate(-94.773 -120.939)"/><path class="d" d="M99.23,135.723l-.2-.5s-.109-.278-.29-.768c-.09-.236-.2-.532-.318-.871l-.117-.331c-.089-.251-.184-.52-.28-.806l-.446-1.328c-.1-.3-.2-.614-.307-.935l-.27-.851c-.134-.434-.273-.878-.4-1.329-.106-.361-.209-.732-.314-1.106l-.153-.551c-.149-.537-.344-1.069-.534-1.586l-.056-.154c-.085-.233-.166-.462-.236-.694a7.017,7.017,0,0,1-.21-.874c-.023-.117-.038-.243-.052-.363l-.075-.654,5.839-.873.113.656c.023.127.042.237.056.355a7.623,7.623,0,0,1,.053.9c0,.25-.012.5-.025.755l-.005.136c-.034.554-.063,1.118-.048,1.67l.015.63c.01.37.019.739.02,1.1.007.386.005.779.005,1.162l-.067,3.493c-.008.28-.02.543-.031.788l-.065,1.347c-.03.517-.055.815-.055.815l-.045.54Zm-2.712-12.557c.029.116.06.23.1.346.064.214.138.42.214.629l.053.15c.2.547.41,1.115.567,1.687l.154.551c.1.367.2.731.31,1.092.127.447.262.881.393,1.3l.267.841c.1.312.2.616.3.91l.449,1.334c.075.229.151.442.222.644l.093-4.137c0-.376,0-.761-.005-1.148,0-.364-.011-.721-.019-1.081l-.016-.635c-.015-.585.014-1.189.049-1.782.018-.352.029-.582.029-.81,0-.123,0-.244-.01-.364Z" transform="translate(-94.973 -121.145)"/></g><g transform="translate(14.662 33.428)"><path class="f" d="M79.567,123.663c-.014.109-.025.218-.037.329-.012.269-.018.54,0,.818s.05.562.076.845c.064.573.123,1.151.142,1.729s.026,1.147.05,1.714.053,1.125.085,1.668.067,1.064.108,1.561.078.967.112,1.4.08.835.112,1.185.065.661.1.912c.055.51.093.8.093.8l.439.042s.091-.28.245-.765c.078-.243.168-.539.266-.881s.218-.72.335-1.14.243-.873.376-1.351.263-.989.4-1.509.271-1.068.4-1.619.252-1.114.38-1.676.295-1.118.466-1.666c.082-.275.166-.545.235-.817a7.139,7.139,0,0,0,.15-.806c.012-.106.023-.217.027-.327Z" transform="translate(-78.837 -122.918)"/><path class="d" d="M81.5,137.6l-1.523-.147-.072-.537s-.038-.3-.094-.818c-.03-.249-.065-.566-.1-.926l-.038-.393c-.026-.25-.053-.518-.074-.8l-.112-1.4c-.037-.445-.067-.908-.1-1.389l-.012-.184c-.034-.595-.067-1.136-.086-1.687-.016-.4-.027-.819-.038-1.233l-.012-.488c-.019-.556-.076-1.117-.138-1.67l-.026-.255c-.02-.211-.042-.423-.053-.631-.015-.3-.01-.6,0-.886l.121-1.04,5.866.578-.031.649c-.005.124-.018.25-.031.37a7.545,7.545,0,0,1-.168.9c-.059.237-.131.476-.2.719l-.041.134c-.166.53-.33,1.07-.451,1.612l-.128.573c-.083.374-.166.747-.255,1.115-.11.47-.228.938-.344,1.4l-.215.82c-.085.322-.166.634-.252.937l-.375,1.347c-.074.263-.149.511-.218.745l-.12.4c-.1.348-.192.649-.27.9Zm-1.117-12.989c0,.125,0,.244.007.364.01.185.029.375.049.565l.025.252c.065.579.124,1.175.143,1.77l.014.494c.01.406.02.813.037,1.215.019.546.05,1.076.082,1.594l.015.244c.03.47.059.926.094,1.364l.113,1.4c.018.236.04.46.061.671.06-.2.125-.417.188-.645l.375-1.35c.085-.3.165-.6.247-.914l.211-.807c.115-.45.23-.911.338-1.379.09-.367.17-.731.252-1.1l.13-.578c.128-.575.3-1.149.48-1.717.1-.342.168-.562.224-.78.03-.12.056-.239.076-.356Z" transform="translate(-79.018 -123.117)"/></g><g transform="translate(58.022 26.168)"><path class="f" d="M115.67,118.44c.045.1.09.2.13.3a7.169,7.169,0,0,1,.245.783c.065.27.12.551.173.83.106.563.217,1.137.374,1.691s.308,1.11.45,1.659.277,1.089.408,1.617.244,1.039.35,1.527.211.944.3,1.369.169.821.244,1.167.131.652.173.9c.1.5.143.792.143.792l-.4.168s-.17-.24-.457-.66c-.147-.207-.32-.466-.511-.762s-.421-.626-.656-.994-.487-.762-.757-1.182-.537-.867-.828-1.325-.573-.941-.855-1.43-.567-.994-.852-1.492-.607-.986-.93-1.458c-.162-.241-.32-.473-.462-.716a6.556,6.556,0,0,1-.382-.721c-.042-.1-.086-.2-.123-.307Z" transform="translate(-110.589 -117.558)"/><path class="d" d="M118.243,132.32l-.315-.442s-.173-.244-.465-.671c-.145-.2-.323-.47-.521-.774l-.168-.254c-.154-.229-.319-.479-.49-.746l-.757-1.181c-.147-.232-.3-.472-.449-.716l-.638-1.039c-.2-.337-.412-.679-.612-1.028-.187-.316-.372-.645-.558-.974l-.3-.521c-.274-.49-.59-.956-.9-1.413-.2-.3-.35-.521-.488-.754a7.589,7.589,0,0,1-.415-.787c-.065-.155-.108-.258-.145-.363l-.21-.607,5.426-2.259.275.6c.05.112.1.228.146.344a7.847,7.847,0,0,1,.27.858c.07.286.127.58.183.87.1.544.206,1.1.359,1.632l.127.462c.112.406.224.813.327,1.214.12.446.23.895.338,1.335l.226.961c.071.3.138.589.2.874l.3,1.375c.059.251.11.506.158.744l.086.417c.074.363.135.675.179.931.1.5.145.8.145.8l.087.533ZM112.579,120.8c.057.106.116.21.179.314.128.217.263.416.4.623.375.551.715,1.051,1,1.572l.295.52c.183.32.364.644.55.959.2.346.4.679.6,1.008l.633,1.028c.147.239.292.472.436.7l.757,1.182c.127.2.252.389.37.566-.042-.209-.087-.428-.139-.656l-.3-1.376c-.06-.278-.127-.563-.195-.854l-.224-.948c-.106-.432-.214-.871-.333-1.314-.1-.4-.213-.8-.323-1.2l-.127-.458c-.16-.567-.274-1.162-.385-1.744-.05-.269-.1-.537-.165-.8-.03-.116-.063-.232-.1-.346Z" transform="translate(-110.817 -117.793)"/></g><g transform="translate(0.211 22.626)"><path class="g" d="M145.365,118.553a16.08,16.08,0,0,0-.168-2.164c-.03-.211-.07-.42-.106-.627L68.969,127.126c.022.21.049.421.08.631a15.6,15.6,0,0,0,.473,2.118Z" transform="translate(-68.22 -114.989)"/><path class="d" d="M69.237,130.843l-.168-.567a16.207,16.207,0,0,1-.494-2.212c-.034-.217-.061-.439-.085-.66l-.071-.65.648-.1,76.777-11.463.117.652c.048.265.082.457.11.649a16.707,16.707,0,0,1,.175,2.255l.007.594Zm.694-2.936c.072.468.168.941.288,1.411l74.647-11.146c-.023-.485-.068-.967-.136-1.432Z" transform="translate(-68.42 -115.195)"/></g></g></g></g></svg>