<svg xmlns="http://www.w3.org/2000/svg" xmlns:xlink="http://www.w3.org/1999/xlink" width="156.892" height="166.378" viewBox="0 0 156.892 166.378"><defs><style>.a{fill:none;}.b{clip-path:url(#a);}.c{fill:#53c9fb;}.d{fill:#1d4557;}.e{fill:#ff5079;}</style><clipPath id="a"><rect class="a" width="156.892" height="166.378"/></clipPath></defs><g transform="translate(-226.979 -21.283)"><g class="b" transform="translate(226.979 21.283)"><g transform="translate(7.153 13.737)"><path class="c" d="M345.991,137.059a66.232,66.232,0,1,0-93.493,5.7A66.23,66.23,0,0,0,345.991,137.059Z" transform="translate(-228.828 -25.601)"/><path class="d" d="M297.209,161.559H297.2a67.62,67.62,0,1,1,.005,0ZM297.251,29.1a64.9,64.9,0,1,0-.048,129.792h.005A64.9,64.9,0,0,0,297.251,29.1Z" transform="translate(-229.662 -26.434)"/><g transform="translate(27.73 24.102)"><path class="c" d="M245.178,38.964s7.011-1.427,8.755-2.779c1.76-1.352,7.856,3.549,2.725,9.605S244.474,59.244,241.6,54.4,242.453,38.975,245.178,38.964Z" transform="translate(-239.223 -34.661)"/><path class="d" d="M244.96,58.109a4.128,4.128,0,0,1-3.669-2.221c-2.469-4.168-.771-11.147,1.16-14.549,1.085-1.917,2.283-2.891,3.56-2.9,2.523-.541,6.912-1.7,7.941-2.5,1.728-1.331,4.992.307,6.267,3.064.723,1.555,1.459,4.723-1.707,8.456C252.189,54.925,248.139,58.109,244.96,58.109ZM255.512,38.1c-1.819,1.416-8.011,2.728-9.232,2.979-.4.075-1.293.749-2.245,3.115-1.32,3.283-1.9,7.883-.448,10.331a1.489,1.489,0,0,0,1.373.915c2.189,0,6.064-3.267,11.517-9.7,2.1-2.472,1.877-4.413,1.323-5.611A3.388,3.388,0,0,0,255.512,38.1Z" transform="translate(-240.061 -35.472)"/></g><g transform="translate(71.051 89.44)"><path class="c" d="M265.586,75.957s-5.427-6.133-7.768-7.093-.971-9.813,7.957-8.192,20.3,4.368,17.139,10S267.146,78.642,265.586,75.957Z" transform="translate(-255.472 -59.141)"/><path class="d" d="M269.882,79.233c-2.376,0-3.931-.595-4.616-1.771-1.864-2.072-5.621-5.92-7.117-6.531-1.464-.6-2.152-2.507-1.709-4.749.56-2.864,3.019-6.208,8.091-6.208a13.218,13.218,0,0,1,2.32.219c11.328,2.061,16.816,4.333,18.352,7.6a4.574,4.574,0,0,1-.293,4.36C282.314,76.774,274.516,79.233,269.882,79.233ZM264.53,62.641a5.185,5.185,0,0,0-5.227,3.213,3.133,3.133,0,0,0-.1,2.635c2.459,1,7.277,6.355,8.219,7.419.24.323.869.659,2.461.659,3.965,0,10.712-2.176,12.7-5.717a1.927,1.927,0,0,0,.2-1.917c-1.067-2.272-6.589-4.328-16.419-6.115A10.318,10.318,0,0,0,264.53,62.641Z" transform="translate(-256.306 -59.974)"/></g><g transform="translate(52.903 14.652)"><path class="c" d="M259.217,41.235s-6.829-3.04-8.083-3.005-2.4-4.243,1.968-5.291,7.181-.613,6.875,2.56S263.353,39.3,259.217,41.235Z" transform="translate(-248.669 -31.096)"/><path class="d" d="M260.062,43.535l-.555-.248a51.7,51.7,0,0,0-7.539-2.893h0c-1.229,0-2.245-1.165-2.435-2.776-.221-1.867.717-4.331,4.093-5.141,3.864-.931,6.3-.677,7.616.773a4,4,0,0,1,.9,3.211,3.113,3.113,0,0,0,.587,1.984,3.045,3.045,0,0,1,.531,2.517c-.28.888-1.069,1.581-2.64,2.315Zm-7.76-5.776c1.643.24,5.547,1.885,7.709,2.837a3.079,3.079,0,0,0,.7-.469c-.067.019-.2-.189-.3-.365a5.7,5.7,0,0,1-.925-3.557,1.6,1.6,0,0,0-.213-1.16c-.528-.584-2.413-.6-5.021.024a2.562,2.562,0,0,0-2.005,1.509A1.75,1.75,0,0,0,252.3,37.759Z" transform="translate(-249.5 -31.929)"/></g><g transform="translate(44.984 103.621)"><path class="c" d="M262.09,80.579s-11.189-5.411-13.277-5.427-3.76-7.189,3.568-8.693c7.312-1.509,11.968-.645,11.285,4.629S269.085,77.589,262.09,80.579Z" transform="translate(-245.698 -64.456)"/><path class="d" d="M262.888,82.879l-.547-.264c-5.224-2.528-11.568-5.269-12.707-5.293-1.555-.005-2.848-1.621-3.072-3.845-.28-2.792,1.224-6.427,6.381-7.488,6.061-1.253,9.816-.819,11.717,1.341a5.8,5.8,0,0,1,1.163,4.765,6.018,6.018,0,0,0,.965,3.856,4.291,4.291,0,0,1,.7,3.507c-.429,1.2-1.637,2.155-4.043,3.184Zm-13.08-8.192c1.965,0,9.947,3.728,13.136,5.259,1.747-.811,1.995-1.285,2.027-1.379.075-.205-.267-.853-.541-1.371a8.591,8.591,0,0,1-1.253-5.443,3.267,3.267,0,0,0-.517-2.664c-1.139-1.288-4.384-1.48-9.173-.488-2.427.5-3.925,1.763-4.232,3.568a2.957,2.957,0,0,0,.544,2.517Z" transform="translate(-246.531 -65.292)"/></g><g transform="translate(101.973 79.407)"><path class="c" d="M270.018,56.976s9.653.419,11.141-.211,4.9,3.971.139,7.3-8.339,4.136-9.477.176S265.957,61.27,270.018,56.976Z" transform="translate(-267.068 -55.389)"/><path class="d" d="M275.718,69.053c-1.235,0-3.437-.469-4.344-3.621a4.413,4.413,0,0,0-1.779-2.309,3.56,3.56,0,0,1-1.688-2.5c-.072-1.08.517-2.2,1.973-3.741l.421-.443.605.027c.011,0,3.123.136,6.069.136a19.541,19.541,0,0,0,4.509-.245c1.4-.608,3.491.76,4.173,2.928.771,2.443-.261,4.947-2.765,6.693C279.945,68.047,277.6,69.053,275.718,69.053Zm-4.3-9.9c-.819.944-.851,1.283-.851,1.3a8.551,8.551,0,0,0,.7.592,7,7,0,0,1,2.669,3.656c.427,1.483,1.109,1.685,1.781,1.685.888,0,2.592-.448,5.648-2.592,1.395-.973,2.029-2.12,1.843-3.315a2.426,2.426,0,0,0-.9-1.587c-.608.2-1.851.376-5.331.376C274.78,59.269,272.492,59.194,271.42,59.154Z" transform="translate(-267.902 -56.212)"/></g><g transform="translate(13.047 54.849)"><path class="c" d="M236.669,47.768s9.651.421,11.144-.211,4.9,3.968.141,7.3-8.344,4.147-9.48.176S232.615,52.061,236.669,47.768Z" transform="translate(-233.721 -46.18)"/><path class="d" d="M242.366,59.849c-1.235,0-3.437-.472-4.341-3.629a4.4,4.4,0,0,0-1.779-2.3,3.564,3.564,0,0,1-1.685-2.5c-.075-1.08.517-2.2,1.973-3.744l.416-.443.611.027c.008,0,3.125.136,6.072.136a19.44,19.44,0,0,0,4.5-.245c1.4-.608,3.493.757,4.179,2.931.768,2.44-.264,4.941-2.763,6.691C246.593,58.841,244.244,59.849,242.366,59.849Zm-4.3-9.9c-.819.947-.848,1.283-.848,1.3a8.541,8.541,0,0,0,.7.592,7,7,0,0,1,2.667,3.648c.427,1.491,1.107,1.7,1.779,1.7.888,0,2.592-.453,5.653-2.6,1.392-.973,2.027-2.115,1.843-3.309a2.434,2.434,0,0,0-.9-1.589c-.608.2-1.848.376-5.325.376C241.435,50.06,239.145,49.988,238.07,49.945Z" transform="translate(-234.555 -47.003)"/></g><g transform="translate(84.375 35.473)"><path class="c" d="M263.42,40.505s9.648.413,11.141-.216,4.9,3.971.141,7.3-8.339,4.141-9.477.179S259.359,44.8,263.42,40.505Z" transform="translate(-260.47 -38.915)"/><path class="d" d="M269.117,52.583c-1.232,0-3.435-.472-4.341-3.624a4.4,4.4,0,0,0-1.779-2.3,3.552,3.552,0,0,1-1.688-2.5c-.075-1.083.517-2.2,1.976-3.744l.416-.443.611.024c.008,0,3.085.133,6.013.133a19.743,19.743,0,0,0,4.56-.248c1.4-.6,3.491.765,4.173,2.931.771,2.443-.261,4.947-2.757,6.7C273.343,51.575,270.994,52.583,269.117,52.583Zm-4.3-9.9c-.821.944-.851,1.285-.851,1.3.051.069.424.371.7.592a7.007,7.007,0,0,1,2.669,3.643c.427,1.491,1.107,1.7,1.779,1.7.891,0,2.592-.451,5.651-2.595,1.392-.973,2.027-2.12,1.84-3.315a2.413,2.413,0,0,0-.9-1.589c-.608.195-1.859.376-5.379.376C268.146,42.794,265.885,42.722,264.821,42.685Z" transform="translate(-261.303 -39.736)"/></g><g transform="translate(106.507 14.184)"><path class="e" d="M299.748,81.768a16.511,16.511,0,1,1-16.509-16.515A16.509,16.509,0,0,1,299.748,81.768Z" transform="translate(-265.394 -63.92)"/><path class="d" d="M284.072,100.449A17.848,17.848,0,1,1,301.915,82.6,17.866,17.866,0,0,1,284.072,100.449Zm0-33.029A15.181,15.181,0,1,0,299.248,82.6,15.2,15.2,0,0,0,284.072,67.42Z" transform="translate(-266.227 -64.753)"/></g></g></g></g></svg>