<svg xmlns="http://www.w3.org/2000/svg" xmlns:xlink="http://www.w3.org/1999/xlink" width="243.413" height="172.789" viewBox="0 0 243.413 172.789"><defs><style>.a{fill:none;}.b{clip-path:url(#a);}.c{fill:#ff5079;}.d{fill:#1d4557;}.e{fill:#fbe99c;}</style><clipPath id="a"><rect class="a" width="243.413" height="172.789"/></clipPath></defs><g transform="translate(-25.282 -26.282)"><g class="b" transform="translate(25.282 26.282)"><g transform="translate(2.405 13.294)"><g transform="translate(51.107)"><path class="c" d="M144.512,39.576A66.721,66.721,0,1,1,54.563,68.09,66.724,66.724,0,0,1,144.512,39.576Z" transform="translate(-45.825 -30.812)"/><path class="d" d="M114.486,167.557a67.221,67.221,0,0,1-31.239-7.645A67.989,67.989,0,0,1,114.592,31.57a67.226,67.226,0,0,1,31.242,7.648,67.988,67.988,0,0,1-31.347,128.34Zm.106-133.473a65.492,65.492,0,1,0,30.085,7.364A65.293,65.293,0,0,0,114.592,34.084Z" transform="translate(-46.568 -31.57)"/></g><g transform="translate(78.997 27.071)"><path class="c" d="M58.264,59.821S63.3,43.641,67.04,42.894s8.972,6,12.168,6.31S72.016,66.953,58.264,59.821Z" transform="translate(-56.751 -41.582)"/><path class="d" d="M65.83,63.546A15.634,15.634,0,0,1,58.6,61.693l-.935-.485.312-1.006c1.234-3.962,5.581-16.957,9.732-17.784,2.61-.52,5.463,1.591,8.148,3.635,1.574,1.2,3.356,2.554,4.389,2.657a1.943,1.943,0,0,1,1.71,2.225C81.769,54.7,74.79,63.546,65.83,63.546ZM60.7,59.916a12.823,12.823,0,0,0,5.126,1.116c5.536,0,9.516-3.9,10.971-5.574a11.758,11.758,0,0,0,2.6-4.352c-1.579-.392-3.283-1.689-5.076-3.052-2.122-1.617-4.493-3.482-6.134-3.17C66.479,45.226,63.037,52.738,60.7,59.916Z" transform="translate(-57.662 -42.338)"/></g><g transform="translate(128.507 39.495)"><path class="c" d="M80.114,51.314s7.851-5.684,11.039-2.635-.216,8.97-4.332,10.654S73.653,57.6,80.114,51.314Z" transform="translate(-76.596 -46.523)"/><path class="d" d="M85.13,61.776c-2.818,0-6.353-1.234-7.454-3.942-.583-1.441-.656-3.766,2.32-6.662.352-.272,5.4-3.892,9.387-3.892a4.733,4.733,0,0,1,3.4,1.247A5.551,5.551,0,0,1,94.3,53.751a10.936,10.936,0,0,1-6.242,7.5A7.8,7.8,0,0,1,85.13,61.776Zm4.254-11.982c-2.635,0-6.5,2.381-7.773,3.3-.95.943-2.137,2.481-1.6,3.8.541,1.33,2.793,2.373,5.124,2.373a5.292,5.292,0,0,0,1.974-.334,8.488,8.488,0,0,0,4.724-5.644,3.038,3.038,0,0,0-.784-2.939A2.292,2.292,0,0,0,89.383,49.794Z" transform="translate(-77.356 -47.28)"/></g><g transform="translate(0 4.181)"><path class="e" d="M79.3,82.343S47.072,93.97,29.353,130.081s57.9,31.028,128.4,6.69,117.56-71.408,98.36-92.943S183.487,41.9,183.487,41.9l6.471,5.47s-.985.2.958-.186c10.7-2.112,46.21-7.705,50.373,8.083,4.92,18.659-29.751,52.518-84.159,73.127s-95.985,14.146-100.392,1.29S77.325,97.721,77.325,97.721,78.351,86.262,79.3,82.343Z" transform="translate(-25.482 -32.475)"/><path class="d" d="M62.252,158.114c-18.206,0-29.67-3.582-34.075-10.649-2.831-4.543-2.559-10.322.807-17.181C46.72,94.137,79.309,82.037,79.636,81.919l2.2-.794L81.283,83.4c-.92,3.781-1.938,15.079-1.948,15.192l-.048.551-.44.334c-.244.189-24.227,18.707-20.162,30.56,1.9,5.538,13.266,11.13,34.382,11.13,13.488,0,35.6-2.29,64.376-13.188,54.8-20.756,87.93-54.411,83.389-71.632-2.147-8.14-14.176-9.85-23.888-9.85a139.457,139.457,0,0,0-25.027,2.682c-.329.065-.588.113-.789.151l-.161.033.04-.01c-.407.073-.538.088-.543.088h-1.136l-.091-.915-7.457-6.3,2.031-.744c.224-.083,22.714-8.248,43.643-8.248,13.918,0,24.132,3.54,30.354,10.516,4.364,4.9,5.669,11.333,3.774,18.611C254.895,88,210.759,120.821,158.92,138.716,123.737,150.863,87.6,158.114,62.252,158.114Zm16.13-72.949a99.89,99.89,0,0,0-47.143,46.227c-2.956,6.026-3.268,10.986-.93,14.742,3.862,6.192,14.906,9.465,31.943,9.465,25.085,0,60.914-7.2,95.846-19.26,51.115-17.643,94.557-49.722,101.05-74.616,1.7-6.516.616-12-3.215-16.3-5.727-6.421-15.308-9.676-28.479-9.676-16.834,0-34.736,5.41-40.709,7.384l4.332,3.66.349-.078a142.055,142.055,0,0,1,25.517-2.73c15.413,0,24.268,3.944,26.317,11.723,5.518,20.924-33.373,55.1-84.926,74.623-29.13,11.034-51.572,13.352-65.269,13.352-19.961,0-34.047-4.915-36.76-12.826-4.367-12.733,17.088-30.284,20.575-33.032C77.062,95.887,77.688,89.378,78.382,85.165Z" transform="translate(-26.239 -33.233)"/></g><g transform="translate(113.519 22.279)"><path class="c" d="M73.419,41.185s9.1.392,10.5-.2,4.616,3.746.131,6.883-7.859,3.9-8.932.168S69.591,45.238,73.419,41.185Z" transform="translate(-70.636 -39.685)"/><path class="d" d="M78.765,52.544c-1.164,0-3.241-.445-4.1-3.417a4.145,4.145,0,0,0-1.677-2.172A3.361,3.361,0,0,1,71.4,44.6c-.068-1.018.488-2.074,1.865-3.53l.392-.417.573.025c.01,0,2.911.126,5.672.126a18.226,18.226,0,0,0,4.3-.236c1.31-.571,3.288.719,3.934,2.765.727,2.3-.246,4.661-2.6,6.31C82.748,51.6,80.533,52.544,78.765,52.544Zm-4.053-9.332c-.774.892-.8,1.212-.8,1.227.05.068.4.352.661.561a6.6,6.6,0,0,1,2.517,3.434c.4,1.4,1.046,1.6,1.679,1.6.837,0,2.441-.425,5.325-2.446,1.312-.918,1.911-2,1.735-3.122a2.285,2.285,0,0,0-.852-1.5,19.213,19.213,0,0,1-5.071.357C77.848,43.318,75.716,43.25,74.713,43.212Z" transform="translate(-71.394 -40.432)"/></g></g></g></g></svg>