<svg xmlns="http://www.w3.org/2000/svg" xmlns:xlink="http://www.w3.org/1999/xlink" width="91.479" height="71.599" viewBox="0 0 91.479 71.599"><defs><style>.a{fill:none;}.b{clip-path:url(#a);}.c{fill:#83d7b9;}.d{fill:#1d4557;}.e{fill:#fbe99c;}.f{fill:#53c9fb;}</style><clipPath id="a"><rect class="a" width="91.479" height="71.599"/></clipPath></defs><g transform="translate(-206.879 -80.606)"><g class="b" transform="translate(206.879 80.606)"><g transform="translate(8.555 0.499)"><g transform="translate(1.467 0.663)"><path class="c" d="M243.612,146.032A32.23,32.23,0,1,1,275.835,113.8,32.228,32.228,0,0,1,243.612,146.032Z" transform="translate(-210.13 -80.319)"/><path class="d" d="M244.364,148.035a33.482,33.482,0,1,1,33.475-33.48A33.52,33.52,0,0,1,244.364,148.035Zm0-64.461a30.979,30.979,0,1,0,30.971,30.981A31.017,31.017,0,0,0,244.364,83.575Z" transform="translate(-210.882 -81.071)"/></g><path class="e" d="M222.585,104.9a11.8,11.8,0,1,1,11.792-11.8A11.794,11.794,0,0,1,222.585,104.9Z" transform="translate(-209.544 -80.054)"/><path class="d" d="M223.337,106.9A13.049,13.049,0,1,1,236.38,93.849,13.062,13.062,0,0,1,223.337,106.9Zm.005-23.591a10.544,10.544,0,1,0,10.535,10.54A10.55,10.55,0,0,0,223.342,83.31Z" transform="translate(-210.296 -80.806)"/><g transform="translate(59.359 26.327)"><path class="f" d="M241.065,104.956a6.567,6.567,0,1,1,6.567-6.567A6.563,6.563,0,0,1,241.065,104.956Z" transform="translate(-233.254 -90.57)"/><path class="d" d="M241.817,106.959a7.819,7.819,0,1,1,7.818-7.819A7.821,7.821,0,0,1,241.817,106.959Zm0-13.133a5.315,5.315,0,1,0,5.312,5.315A5.326,5.326,0,0,0,241.82,93.826Z" transform="translate(-234.006 -91.322)"/></g></g></g></g></svg>