<svg xmlns="http://www.w3.org/2000/svg" xmlns:xlink="http://www.w3.org/1999/xlink" width="72.143" height="39.388" viewBox="0 0 72.143 39.388"><defs><style>.a{fill:none;}.b{clip-path:url(#a);}.c{fill:#fbe99c;}.d{fill:#1d4557;}.e{fill:#53c9fb;}.f{fill:#fff;}.g{fill:#ff5079;}</style><clipPath id="a"><rect class="a" width="72.143" height="39.388" transform="translate(253.165 89.379)"/></clipPath></defs><g transform="translate(-253.165 -89.379)"><g class="b"><path class="c" d="M293.107,122.286c-.151,1.46-2.966,2.363-6.284,2.016s-5.886-1.808-5.734-3.268,2.966-2.365,6.284-2.019S293.26,120.827,293.107,122.286Z"/><path class="d" d="M288.226,124.876a13.807,13.807,0,0,1-1.455-.077,11.419,11.419,0,0,1-4.364-1.278c-1.265-.721-1.91-1.623-1.815-2.539.159-1.52,2.323-2.541,5.385-2.541a13.961,13.961,0,0,1,1.448.077,11.412,11.412,0,0,1,4.365,1.281c1.266.723,1.91,1.624,1.814,2.539C293.447,123.856,291.286,124.876,288.226,124.876Zm-2.249-5.435c-2.64,0-4.306.836-4.391,1.645-.05.482.442,1.068,1.316,1.566a10.407,10.407,0,0,0,3.973,1.153,12.906,12.906,0,0,0,1.351.071c2.637,0,4.3-.834,4.384-1.642.05-.482-.442-1.068-1.316-1.567a10.412,10.412,0,0,0-3.973-1.155A13.048,13.048,0,0,0,285.977,119.441Z"/><path class="e" d="M318.984,112.9a5.118,5.118,0,0,0-.06-1.434l-60.867-6.344a5.1,5.1,0,0,0-.352,1.392c-.617,5.916,9.456,11.948,23.384,14.524.131-.862,2.88-1.282,6.173-.939s5.892,1.321,5.845,2.191C307.266,122.639,318.369,118.81,318.984,112.9Z"/><path class="d" d="M294.9,122.809h0c-.6,0-1.2-.008-1.8-.023l-.515-.013.028-.514c-.1-.388-2.038-1.318-5.4-1.667a21.148,21.148,0,0,0-2.165-.116c-2.36,0-3.367.444-3.465.646l-.078.511-.5-.108c-14.65-2.709-24.434-8.9-23.79-15.067a5.636,5.636,0,0,1,.385-1.527l.14-.349L319.35,111l.066.371a5.6,5.6,0,0,1,.065,1.572C318.878,118.753,308.768,122.809,294.9,122.809Zm-1.412-1.014c13.821.26,24.439-3.572,25-8.951a4.543,4.543,0,0,0,0-.925l-60.091-6.263a4.524,4.524,0,0,0-.191.9c-.572,5.484,8.918,11.31,22.614,13.914.71-.858,2.874-1,4.229-1a22.027,22.027,0,0,1,2.268.122C289.424,119.816,292.812,120.51,293.488,121.795Z"/><path class="c" d="M302.2,103.142c.433-7.081-5.089-10.149-12.179-10.888s-13.125,1.126-14.162,8.142Z"/><path class="d" d="M302.664,103.693l-27.379-2.854.077-.517c.843-5.7,4.954-8.718,11.89-8.718a27.244,27.244,0,0,1,2.818.153c8.537.89,13.022,4.944,12.626,11.415Zm-26.226-3.739,25.281,2.635c.128-7.088-6.28-9.267-11.752-9.838a26.38,26.38,0,0,0-2.715-.147C281.007,92.6,277.371,95.076,276.438,99.954Z"/><path class="f" d="M302.421,103l-26.47-2.759c-10.418.105-17.787,1.876-18.092,4.783a1.963,1.963,0,0,0,.117.868l60.869,6.343a1.962,1.962,0,0,0,.3-.825C319.441,108.5,312.594,105.247,302.421,103Z"/><path class="d" d="M319.1,112.762l-61.494-6.409-.1-.3a2.455,2.455,0,0,1-.143-1.09c.331-3.159,7.279-5.114,18.584-5.228l26.527,2.762c11.1,2.451,17.492,5.8,17.164,8.959a2.438,2.438,0,0,1-.368,1.037Zm-60.734-7.335,60.186,6.273a1.341,1.341,0,0,0,.086-.345c.215-2.072-4.75-5.309-16.33-7.87l-26.413-2.75c-11.8.122-17.325,2.266-17.543,4.338A1.332,1.332,0,0,0,258.37,105.427Z"/><path class="g" d="M322.1,113.948a1.977,1.977,0,0,1-2.122,1.813l-63.837-6.653a1.977,1.977,0,0,1-1.705-2.212l.151-1.438a1.976,1.976,0,0,1,2.123-1.814l63.838,6.653a1.977,1.977,0,0,1,1.7,2.213Z"/><path class="d" d="M320.17,116.271a2.194,2.194,0,0,1-.242-.013l-63.837-6.653a2.479,2.479,0,0,1-2.151-2.76l.151-1.439a2.461,2.461,0,0,1,2.672-2.26L320.6,109.8a2.353,2.353,0,0,1,1.634.923,2.554,2.554,0,0,1,.513,1.839L322.6,114A2.481,2.481,0,0,1,320.17,116.271Zm-63.65-12.137a1.482,1.482,0,0,0-1.435,1.376l-.151,1.438a1.479,1.479,0,0,0,1.26,1.663l63.837,6.653A1.481,1.481,0,0,0,321.6,113.9l.15-1.438a1.566,1.566,0,0,0-.311-1.125,1.367,1.367,0,0,0-.946-.539l-63.838-6.653A1.308,1.308,0,0,0,256.52,104.134Z"/><path class="c" d="M260.1,106.761a1.216,1.216,0,1,1-1.084-1.344A1.218,1.218,0,0,1,260.1,106.761Z"/><path class="d" d="M258.892,108.354a1.77,1.77,0,0,1-.178-.009,1.722,1.722,0,0,1,.355-3.425,1.7,1.7,0,0,1,1.157.628,1.723,1.723,0,0,1-1.334,2.806Zm.065-2.44a.734.734,0,0,0-.777.647.719.719,0,0,0,.637.79l.075,0a.724.724,0,0,0,.556-1.178.706.706,0,0,0-.482-.261Z"/><path class="c" d="M265.988,107.374a1.215,1.215,0,1,1-1.082-1.344A1.216,1.216,0,0,1,265.988,107.374Z"/><path class="d" d="M264.781,108.968c-.059,0-.12,0-.18-.01a1.722,1.722,0,0,1,.357-3.425,1.723,1.723,0,0,1-.177,3.435Zm.065-2.441a.734.734,0,0,0-.778.645.719.719,0,0,0,.637.791l.076.005a.715.715,0,0,0,.71-.645.724.724,0,0,0-.158-.536.7.7,0,0,0-.479-.259Z"/><path class="c" d="M271.877,107.987a1.215,1.215,0,1,1-1.081-1.343A1.216,1.216,0,0,1,271.877,107.987Z"/><path class="d" d="M270.67,109.581a1.579,1.579,0,0,1-.181-.01,1.714,1.714,0,0,1-1.526-1.888,1.715,1.715,0,1,1,1.707,1.9Zm.064-2.44a.732.732,0,0,0-.777.646.717.717,0,0,0,.637.79l.076,0a.715.715,0,0,0,.71-.645.728.728,0,0,0-.156-.533.7.7,0,0,0-.48-.262Z"/><path class="c" d="M277.766,108.6a1.216,1.216,0,1,1-1.082-1.344A1.217,1.217,0,0,1,277.766,108.6Z"/><path class="d" d="M276.558,110.195q-.09,0-.18-.009a1.718,1.718,0,1,1,.18.009Zm.065-2.441a.734.734,0,0,0-.778.647.719.719,0,0,0,.635.79l.078,0a.714.714,0,0,0,.71-.646.722.722,0,0,0-.637-.8Z"/><path class="c" d="M283.652,109.214a1.215,1.215,0,1,1-1.08-1.343A1.217,1.217,0,0,1,283.652,109.214Z"/><path class="d" d="M282.444,110.809a1.744,1.744,0,0,1-.176-.009,1.722,1.722,0,0,1,.356-3.426,1.723,1.723,0,0,1-.18,3.435Zm.067-2.441a.734.734,0,0,0-.778.647.719.719,0,0,0,.638.79l.073,0a.713.713,0,0,0,.711-.645.721.721,0,0,0-.155-.535.712.712,0,0,0-.481-.261Z"/><path class="c" d="M289.541,109.827a1.215,1.215,0,1,1-1.08-1.343A1.216,1.216,0,0,1,289.541,109.827Z"/><path class="d" d="M288.334,111.422c-.06,0-.119,0-.179-.008a1.727,1.727,0,1,1,.179.008Zm.065-2.441a.734.734,0,0,0-.777.647.719.719,0,0,0,.156.53.706.706,0,0,0,.481.26l.075,0a.714.714,0,0,0,.71-.646.717.717,0,0,0-.636-.795Z"/><path class="c" d="M295.43,110.442a1.216,1.216,0,1,1-1.082-1.343A1.217,1.217,0,0,1,295.43,110.442Z"/><path class="d" d="M294.221,112.036a1.769,1.769,0,0,1-.178-.009,1.722,1.722,0,0,1,.357-3.425,1.722,1.722,0,0,1-.179,3.434Zm.066-2.44a.74.74,0,0,0-.778.644.72.72,0,0,0,.637.792l.075,0a.716.716,0,0,0,.712-.644.73.73,0,0,0-.157-.534.7.7,0,0,0-.48-.262Z"/><path class="c" d="M301.318,111.055a1.216,1.216,0,1,1-1.082-1.343A1.218,1.218,0,0,1,301.318,111.055Z"/><path class="d" d="M300.11,112.649c-.059,0-.12,0-.18-.009a1.717,1.717,0,0,1-1.527-1.889,1.715,1.715,0,1,1,1.707,1.9Zm.065-2.44a.734.734,0,0,0-.778.646.723.723,0,0,0,.157.529.7.7,0,0,0,.48.261l.076,0a.722.722,0,0,0,.074-1.44Z"/><path class="c" d="M307.207,111.669a1.216,1.216,0,1,1-1.08-1.344A1.221,1.221,0,0,1,307.207,111.669Z"/><path class="d" d="M306,113.264a1.723,1.723,0,1,1,1.708-1.544A1.727,1.727,0,0,1,306,113.264Zm.07-2.442a.737.737,0,0,0-.78.647.72.72,0,0,0,.637.791l.073,0a.723.723,0,0,0,.078-1.442Z"/><path class="c" d="M313.1,112.282a1.216,1.216,0,1,1-1.084-1.342A1.22,1.22,0,0,1,313.1,112.282Z"/><path class="d" d="M311.885,113.877c-.059,0-.118,0-.179-.009a1.72,1.72,0,1,1,.179.009Zm.066-2.441a.733.733,0,0,0-.776.647.718.718,0,0,0,.635.79l.075,0a.722.722,0,0,0,.075-1.44Z"/><path class="c" d="M318.984,112.9a1.216,1.216,0,1,1-1.084-1.344A1.218,1.218,0,0,1,318.984,112.9Z"/><path class="d" d="M317.774,114.49a1.577,1.577,0,0,1-.18-.01,1.713,1.713,0,0,1-1.525-1.889,1.715,1.715,0,1,1,1.7,1.9Zm.066-2.441a.741.741,0,0,0-.777.645.726.726,0,0,0,.157.534.7.7,0,0,0,.477.258l.077,0a.723.723,0,0,0,.074-1.441Z"/></g></g></svg>