<svg xmlns="http://www.w3.org/2000/svg" width="50.823" height="23.875" viewBox="0 0 50.823 23.875"><defs><style>.a{fill:#53c9fb;}.b{fill:#1d4557;}</style></defs><g transform="translate(-297.182 -134.594)"><path class="a" d="M300.59,142.949h22.921c1.551-1.562,1.138-2.907.628-3.683h-1.521a1.829,1.829,0,0,1-1.906-1.741v-.695a1.827,1.827,0,0,1,1.906-1.737h17.99a1.826,1.826,0,0,1,1.908,1.737v.695a1.828,1.828,0,0,1-1.908,1.741h-2.385c-.51.775-.917,2.121.632,3.683H344.6a2.946,2.946,0,0,1,2.9,2.982v1.2a2.945,2.945,0,0,1-2.9,2.984H321.488c-1.547,1.566-1.138,2.905-.628,3.685h2.349a1.827,1.827,0,0,1,1.9,1.737v.7a1.823,1.823,0,0,1-1.9,1.739H305.215a1.82,1.82,0,0,1-1.9-1.739v-.7a1.824,1.824,0,0,1,1.9-1.737H307.6c.51-.78.921-2.119-.632-3.685H300.59a2.946,2.946,0,0,1-2.908-2.984v-1.2A2.947,2.947,0,0,1,300.59,142.949Z" transform="translate(0)"/><path class="b" d="M323.2,158.469h-17.6a2.808,2.808,0,0,1-2.9-2.7v-.664a2.806,2.806,0,0,1,2.9-2.7h1.7a1.5,1.5,0,0,0-.435-1.43h-5.79a3.888,3.888,0,0,1-3.885-3.883v-1.14a3.886,3.886,0,0,1,3.885-3.881h21.97a1.492,1.492,0,0,0,.433-1.428h-.853a2.811,2.811,0,0,1-2.905-2.7v-.662a2.809,2.809,0,0,1,2.905-2.7h17.6a2.81,2.81,0,0,1,2.907,2.7v.662a2.812,2.812,0,0,1-2.907,2.7h-1.7a1.489,1.489,0,0,0,.435,1.428h5.167A3.884,3.884,0,0,1,348,145.959v1.14a3.886,3.886,0,0,1-3.881,3.883H321.966a1.5,1.5,0,0,0-.431,1.43H323.2a2.808,2.808,0,0,1,2.9,2.7v.664A2.81,2.81,0,0,1,323.2,158.469Zm-17.6-3.975c-.443,0-.818.281-.818.614v.664c0,.335.375.616.818.616h17.6c.443,0,.82-.281.82-.616v-.664c0-.333-.377-.614-.82-.614h-2.853l-.308-.458c-.5-.743-1.421-2.7.745-4.834l.306-.3h23.038a1.8,1.8,0,0,0,1.8-1.8v-1.14a1.8,1.8,0,0,0-1.8-1.8h-6.046l-.306-.3c-2.177-2.137-1.249-4.091-.749-4.832l.31-.458h2.884c.447,0,.826-.283.826-.618v-.662c0-.335-.379-.614-.826-.614h-17.6c-.447,0-.824.279-.824.614v.662c0,.335.377.618.824.618h2.042l.308.458c.5.741,1.432,2.7-.745,4.832l-.306.3H301.067a1.8,1.8,0,0,0-1.8,1.8v1.14a1.8,1.8,0,0,0,1.8,1.8h6.668l.3.3c2.177,2.137,1.251,4.091.753,4.837l-.31.458Z"/></g></svg>