<svg xmlns="http://www.w3.org/2000/svg" xmlns:xlink="http://www.w3.org/1999/xlink" width="50.819" height="100" viewBox="0 0 50.819 100"><defs><style>.a{fill:none;}.b{clip-path:url(#a);}.c{fill:#53c9fb;}.d{fill:#1d4557;}.e{fill:#ff5079;}.f{fill:#fff;}.g{fill:#fbe99c;}</style><clipPath id="a"><rect class="a" width="50.819" height="100"/></clipPath></defs><g transform="translate(-249.156 -15.742)"><g class="b" transform="translate(249.156 15.742)"><g transform="translate(0.363 2.921)"><g transform="translate(28.753 40.526)"><path class="c" d="M278.1,55.14,296.463,72.8v9.424H275.316" transform="translate(-275.316 -54.739)"/><path class="d" d="M297.019,82.82h-21.7V81.707h20.59V73.076L277.713,55.581l.772-.8L297.019,72.6Z" transform="translate(-275.316 -54.779)"/></g><g transform="translate(0 40.526)"><path class="c" d="M268.347,55.14,249.982,72.8v9.424h21.147" transform="translate(-249.426 -54.739)"/><path class="d" d="M271.185,82.82h-21.7V72.6l18.535-17.823.772.8L250.6,73.076v8.631h20.59Z" transform="translate(-249.482 -54.779)"/></g><g transform="translate(12.739)"><path class="e" d="M284.112,48.519c.16-19.419-11.376-29.487-11.376-29.487S261.251,29.14,261.43,48.519V87.929h22.682V48.519Z" transform="translate(-260.872 -18.292)"/><path class="d" d="M284.726,88.56h-23.8V48.594a43.686,43.686,0,0,1,5.661-22.287,32.038,32.038,0,0,1,5.834-7.617l.366-.323.367.322c.117.1,11.726,10.461,11.566,29.91Zm-22.682-1.113h21.57V48.594c.139-16.962-8.87-26.793-10.819-28.718-1.94,1.932-10.906,11.79-10.75,28.714Z" transform="translate(-260.928 -18.367)"/></g><g transform="translate(16.867 28.772)"><path class="f" d="M272.51,44.718h-.016a7.406,7.406,0,0,0,.013,14.812h.012a7.406,7.406,0,0,0-.01-14.812Z" transform="translate(-264.581 -44.162)"/><path class="d" d="M272.578,60.142h-.013a7.923,7.923,0,1,1,.013,0Zm-.011-14.812a6.849,6.849,0,0,0,0,13.7l.012.556V59.03a6.849,6.849,0,0,0-.009-13.7Z" transform="translate(-264.637 -44.218)"/></g><g transform="translate(20.201 48.54)"><path class="f" d="M275.893,76.832a3.879,3.879,0,0,1-3.88,3.88h0a3.879,3.879,0,0,1-3.88-3.88V66.361a3.88,3.88,0,0,1,3.88-3.881h0a3.88,3.88,0,0,1,3.88,3.881Z" transform="translate(-267.577 -61.924)"/><path class="d" d="M272.069,81.325a4.441,4.441,0,0,1-4.436-4.436V66.417a4.436,4.436,0,1,1,8.873,0V76.888A4.441,4.441,0,0,1,272.069,81.325Zm0-18.232a3.328,3.328,0,0,0-3.323,3.324V76.888a3.323,3.323,0,1,0,6.647,0V66.417A3.327,3.327,0,0,0,272.069,63.093Z" transform="translate(-267.633 -61.98)"/></g><g transform="translate(21.784 52.559)"><path class="c" d="M274.15,68.388a2.3,2.3,0,1,1-2.3-2.3A2.3,2.3,0,0,1,274.15,68.388Z" transform="translate(-268.999 -65.535)"/><path class="d" d="M271.909,71.3a2.854,2.854,0,1,1,2.855-2.854A2.857,2.857,0,0,1,271.909,71.3Zm0-4.594a1.741,1.741,0,1,0,1.742,1.741A1.743,1.743,0,0,0,271.909,66.7Z" transform="translate(-269.055 -65.591)"/></g><g transform="translate(20.201 59.357)"><rect class="c" width="7.76" height="2.688" transform="translate(0.556 0.557)"/><path class="d" d="M276.506,75.5h-8.873V71.7h8.873Zm-7.76-1.113h6.647V72.812h-6.647Z" transform="translate(-267.633 -71.699)"/></g><g transform="translate(30.018 63.147)"><path class="f" d="M286.335,89.228V80.294a4.691,4.691,0,0,0-9.382,0v8.934Z" transform="translate(-276.397 -75.048)"/><path class="d" d="M286.948,89.841h-10.5v-9.49a5.248,5.248,0,0,1,10.5,0Zm-9.382-1.113h8.269V80.351a4.135,4.135,0,0,0-8.269,0Z" transform="translate(-276.453 -75.104)"/></g><g transform="translate(30.316 79.745)"><path class="g" d="M281.633,104.92s9.875-14.42-.027-14.4S281.633,104.92,281.633,104.92Z" transform="translate(-276.665 -89.961)"/><path class="d" d="M281.689,105.959l-.46-.666c-.254-.368-6.194-9.061-4.039-13.177.729-1.389,2.232-2.1,4.47-2.1s3.749.7,4.48,2.088c2.166,4.108-3.741,12.818-3.993,13.187Zm-.01-14.829c-1.807,0-2.981.51-3.5,1.5-1.4,2.674,1.724,8.55,3.509,11.335,1.774-2.79,4.877-8.675,3.469-11.345C284.632,91.633,283.462,91.13,281.679,91.13Z" transform="translate(-276.721 -90.017)"/></g><g transform="translate(9.221 63.147)"><path class="f" d="M267.649,89.228V80.294a4.691,4.691,0,0,0-9.382,0v8.934Z" transform="translate(-257.711 -75.048)"/><path class="d" d="M268.262,89.841h-10.5v-9.49a5.248,5.248,0,0,1,10.5,0Zm-9.382-1.113h8.269V80.351a4.135,4.135,0,0,0-8.269,0Z" transform="translate(-257.767 -75.104)"/></g><g transform="translate(9.519 79.745)"><path class="g" d="M262.947,104.92s9.875-14.42-.026-14.4S262.947,104.92,262.947,104.92Z" transform="translate(-257.98 -89.961)"/><path class="d" d="M263,105.959l-.46-.666c-.255-.368-6.195-9.061-4.039-13.177.728-1.389,2.232-2.1,4.47-2.1s3.749.7,4.479,2.088c2.166,4.108-3.74,12.818-3.993,13.187Zm-.011-14.829c-1.807,0-2.981.51-3.5,1.5-1.4,2.674,1.723,8.55,3.508,11.335,1.775-2.79,4.878-8.675,3.469-11.345C265.946,91.633,264.777,91.13,262.993,91.13Z" transform="translate(-258.035 -90.017)"/></g><g transform="translate(14.196)"><path class="f" d="M272.586,19.032s-6.691,5.9-9.776,17.322a17.382,17.382,0,0,0,19.608,0C279.312,24.92,272.586,19.032,272.586,19.032Z" transform="translate(-262.172 -18.292)"/><path class="d" d="M272.681,40.017a17.5,17.5,0,0,1-10.13-3.134l-.314-.226.1-.373C265.43,24.837,272,18.936,272.283,18.69l.367-.323.367.322c.28.245,6.888,6.13,10,17.6l.1.373-.314.225A17.5,17.5,0,0,1,272.681,40.017Zm-9.164-3.82a16.868,16.868,0,0,0,18.324,0,37.938,37.938,0,0,0-9.188-16.324A38.1,38.1,0,0,0,263.517,36.2Z" transform="translate(-262.237 -18.367)"/></g></g></g></g></svg>