<svg xmlns="http://www.w3.org/2000/svg" xmlns:xlink="http://www.w3.org/1999/xlink" width="52.149" height="100" viewBox="0 0 52.149 100"><defs><style>.a{fill:none;}.b{clip-path:url(#a);}.c{fill:#fbe99c;}.d{fill:#1d4557;}.e{fill:#fff;}.f{fill:#53c9fb;}.g{fill:#ff5079;}</style><clipPath id="a"><rect class="a" width="52.149" height="100"/></clipPath></defs><g transform="translate(-137.37 -33.538)"><g class="b" transform="translate(137.37 33.538)"><g transform="translate(0.891 4.835)"><g transform="translate(18.172 73.348)"><path class="c" d="M169.526,158.62s13.971-20.4-.034-20.373S169.526,158.62,169.526,158.62Z" transform="translate(-162.903 -137.872)"/><path class="d" d="M169.4,159.158l-.31-.449c-.353-.512-8.62-12.607-5.685-18.209.954-1.821,2.958-2.746,5.959-2.752s5.012.919,5.968,2.732c2.949,5.594-5.273,17.716-5.624,18.228Zm-.009-20.661c-2.725.005-4.507.8-5.321,2.349-2.421,4.621,3.836,14.687,5.328,16.97,1.483-2.288,7.7-12.374,5.271-16.988C173.856,139.282,172.079,138.5,169.393,138.5Z" transform="translate(-162.778 -137.747)"/></g><g transform="translate(15.836 67.431)"><path class="e" d="M177.283,131.9a1.553,1.553,0,0,1-1.548,1.555l-14.023.053a1.542,1.542,0,0,1-1.547-1.545h0a1.555,1.555,0,0,1,1.547-1.555l14.023-.052a1.542,1.542,0,0,1,1.548,1.544Z" transform="translate(-159.79 -129.985)"/><path class="d" d="M161.583,133.762a1.925,1.925,0,0,1,0-3.85l14.023-.052a1.925,1.925,0,0,1,0,3.85Zm14.032-3.152-14.027.052a1.175,1.175,0,0,0-.005,2.35v.375l0-.375,14.023-.053a1.175,1.175,0,0,0,.006-2.349Z" transform="translate(-159.665 -129.86)"/></g><g transform="translate(5.592)"><path class="f" d="M165.667,40.585s-19.561,13.2-19.149,38.394,7.808,29.691,7.808,29.691l11.267-.06,11.264-.057s7.4-4.574,7.873-29.77S165.667,40.585,165.667,40.585Z" transform="translate(-146.136 -40.133)"/><path class="d" d="M154.1,108.9l-.091-.056c-.31-.188-7.577-4.893-7.989-30s19.117-38.579,19.315-38.712l.209-.14.209.14c.2.131,19.7,13.4,19.23,38.517s-7.743,29.892-8.052,30.083l-.089.055Zm11.446-68c-2.095,1.52-19.156,14.638-18.775,37.93.38,23.188,6.764,28.727,7.551,29.321l22.292-.116c.778-.593,7.187-6.188,7.619-29.4C184.664,55.335,167.639,42.4,165.543,40.893Z" transform="translate(-146.011 -39.983)"/></g><g transform="translate(9.996)"><path class="g" d="M180.489,55.758a47.193,47.193,0,0,0-13.312-15.173A48.078,48.078,0,0,0,153.831,55.9q-.66,1.181-1.272,2.447a37.215,37.215,0,0,0,29.255-.032C181.391,57.429,180.947,56.577,180.489,55.758Z" transform="translate(-152.05 -40.133)"/><path class="d" d="M166.825,61.539h0a37.061,37.061,0,0,1-14.584-3l-.36-.155.171-.353c.413-.854.845-1.683,1.282-2.466A48.948,48.948,0,0,1,166.8,40.123l.209-.14.209.14a48.029,48.029,0,0,1,13.431,15.3c.473.844.923,1.711,1.337,2.573l.173.359-.368.15A39.467,39.467,0,0,1,166.825,61.539ZM152.9,58a36.321,36.321,0,0,0,13.925,2.786,38.629,38.629,0,0,0,14.307-2.825c-.359-.729-.741-1.458-1.141-2.173a47.79,47.79,0,0,0-12.982-14.9,48.763,48.763,0,0,0-13.02,15.037C153.619,56.591,153.254,57.287,152.9,58Z" transform="translate(-151.881 -39.983)"/></g><g transform="translate(0 54.053)"><path class="f" d="M147.38,112.344l-7.731,9.511s-1.332,1.073,0,4.007,7.726,16.934,7.726,16.934.487.265.756-.4c0,0-1.774-14.463,6.043-15.96" transform="translate(-138.682 -112.108)"/><path class="d" d="M147.475,143.144a.907.907,0,0,1-.406-.1l-.11-.06-.052-.114s-6.393-14-7.727-16.935-.164-4.2.071-4.422l7.712-9.488.582.473-7.786,9.566c-.041.035-1.072.966.1,3.56,1.245,2.74,6.9,15.133,7.645,16.757a.287.287,0,0,0,.11-.131c-.161-1.44-1.441-14.776,6.357-16.269l.142.737c-7.383,1.413-5.759,15.4-5.742,15.547l.012.1-.036.089a1.037,1.037,0,0,1-.6.641A.827.827,0,0,1,147.475,143.144Z" transform="translate(-138.558 -112.029)"/></g><g transform="translate(34.729 53.932)"><path class="f" d="M191.735,112.184l7.725,9.456s1.333,1.065,0,4.006-7.732,16.99-7.732,16.99-.489.271-.755-.4c0,0,1.78-14.476-6.036-15.917" transform="translate(-184.87 -111.947)"/><path class="d" d="M191.473,142.987a.819.819,0,0,1-.276-.047,1.029,1.029,0,0,1-.595-.641l-.035-.089.012-.1c.016-.141,1.647-14.142-5.732-15.5l.137-.738c7.8,1.439,6.514,14.791,6.352,16.227a.294.294,0,0,0,.107.129c.734-1.612,6.408-14.066,7.654-16.818,1.178-2.6.148-3.525.1-3.562l-7.777-9.508.58-.475,7.708,9.433c.236.218,1.4,1.493.07,4.421-1.333,2.944-7.733,16.991-7.733,16.991l-.051.113-.109.06A.917.917,0,0,1,191.473,142.987Z" transform="translate(-184.847 -111.868)"/></g><g transform="translate(14.112 25.597)"><path class="e" d="M173.509,75.91a10.483,10.483,0,0,0-5.114-1.309,10.552,10.552,0,1,0,0,21.1,10.571,10.571,0,0,0,5.119-19.795Z" transform="translate(-157.492 -74.226)"/><path class="d" d="M168.239,95.955a10.844,10.844,0,1,1,.028,0Zm.069-21.1a10.177,10.177,0,1,0-.069,20.354v.375l.026-.375a10.177,10.177,0,1,0,.044-20.354Z" transform="translate(-157.367 -74.101)"/></g><g transform="translate(6.296 48.529)"><path class="g" d="M182.728,106.4l-.436.227c-.332.174-.665.344-1,.506-.161.08-.32.155-.481.232-.337.161-.673.311-1.008.459-.133.058-.266.119-.4.176-.461.2-.919.382-1.372.555l-.234.083q-.566.212-1.131.4c-.156.053-.311.1-.469.152-.3.1-.6.187-.9.275-.164.047-.326.095-.488.14q-.468.128-.935.242c-.134.032-.266.068-.4.1-.427.1-.846.19-1.266.271-.135.026-.269.047-.4.072-.293.053-.587.105-.877.149q-.259.041-.514.075c-.254.036-.511.068-.764.1-.171.02-.342.041-.512.058-.279.028-.551.049-.827.071-.135.01-.272.024-.406.032-.386.024-.767.041-1.146.05-.158.005-.314.007-.47.008a36.1,36.1,0,0,1-18.759-5.131c.068.677.143,1.329.223,1.96.058.458.119.9.187,1.34s.139.883.21,1.306q.141.819.3,1.582c2.2,10.744,6.358,13.021,6.358,13.021l10.985-.043h0l11.068-.043s4.153-2.307,6.361-13.044q.155-.76.3-1.577c.074-.426.145-.863.212-1.314q.1-.653.188-1.34c.081-.631.156-1.279.224-1.954C183.677,105.879,183.2,106.145,182.728,106.4Z" transform="translate(-147.098 -104.9)"/><path class="d" d="M154.575,125.054l-.085-.047c-.176-.1-4.338-2.484-6.546-13.274q-.155-.769-.3-1.594c-.072-.426-.144-.864-.211-1.314s-.13-.886-.188-1.348c-.081-.633-.156-1.289-.224-1.971l-.074-.742.641.383a35.836,35.836,0,0,0,18.083,5.081l.478,0c.156,0,.308,0,.464-.007.378-.009.755-.027,1.134-.05l.4-.032c.272-.021.542-.042.818-.07.167-.016.336-.037.5-.057.251-.029.5-.06.757-.1.17-.023.338-.048.509-.074.287-.044.578-.1.867-.148l.4-.071c.413-.08.828-.171,1.249-.268l.394-.1c.306-.075.614-.155.923-.239l.484-.139c.292-.086.588-.175.883-.27l.464-.151q.56-.188,1.121-.4l.236-.085c.445-.17.9-.355,1.356-.548l.393-.174c.33-.146.662-.3,1-.455l.476-.23c.329-.161.659-.33.987-.5l.435-.227c.467-.252.938-.515,1.411-.795l.639-.375-.076.737c-.068.677-.144,1.329-.224,1.963q-.09.692-.189,1.349c-.068.453-.139.892-.214,1.321-.1.55-.2,1.078-.3,1.588-2.217,10.782-6.37,13.2-6.546,13.3l-.084.046h-.1Zm-6.728-18.886q.069.621.144,1.215c.058.455.118.9.185,1.329s.139.881.209,1.3c.092.541.193,1.065.294,1.57,1.966,9.606,5.538,12.343,6.1,12.719l21.836-.083c.554-.376,4.126-3.135,6.1-12.745q.155-.754.3-1.567c.074-.422.143-.857.21-1.3s.128-.877.186-1.332q.077-.594.146-1.212-.4.225-.8.44l-.44.23c-.335.175-.67.347-1,.51l-.484.233c-.34.162-.68.314-1.017.464l-.4.176c-.47.2-.931.387-1.389.561l-.24.086c-.378.142-.759.277-1.139.4l-.473.154c-.3.1-.6.189-.906.278l-.493.141c-.317.087-.632.168-.946.245l-.4.1c-.434.1-.858.193-1.281.275l-.407.073c-.3.053-.595.106-.888.152-.174.026-.348.052-.519.075-.257.037-.517.068-.773.1-.171.02-.345.041-.517.058-.282.029-.557.05-.836.071l-.412.033c-.39.024-.775.042-1.16.051-.158.005-.316.007-.476.008l-.487,0A36.552,36.552,0,0,1,147.847,106.168Z" transform="translate(-146.949 -104.667)"/></g></g></g></g></svg>