<svg xmlns="http://www.w3.org/2000/svg" xmlns:xlink="http://www.w3.org/1999/xlink" width="52.853" height="100" viewBox="0 0 52.853 100"><defs><style>.a{fill:none;}.b{clip-path:url(#a);}.c{fill:#fff;}.d{fill:#1d4557;}.e{fill:#ff5079;}.f{fill:#53c9fb;}.g{fill:#fbe99c;}</style><clipPath id="a"><rect class="a" width="52.853" height="100"/></clipPath></defs><g transform="translate(-157.209 -143.701)"><g class="b" transform="translate(157.209 143.701)"><g transform="translate(1.213 3.17)"><g transform="translate(15.758 69.014)"><g transform="translate(0.6 0.6)"><path class="c" d="M188.824,205.858a1.534,1.534,0,0,1-1.51,1.562l-13.905.215a1.541,1.541,0,0,1-1.56-1.518h0a1.539,1.539,0,0,1,1.512-1.564l13.905-.211a1.535,1.535,0,0,1,1.558,1.517Z" transform="translate(-171.849 -204.341)"/></g><path class="d" d="M189.238,207.054a2.142,2.142,0,0,1-1.815,1.066l-13.9.215a2.149,2.149,0,0,1-2.17-2.108,2.2,2.2,0,0,1,2.1-2.175l13.9-.211a2.135,2.135,0,0,1,2.168,2.108A2.145,2.145,0,0,1,189.238,207.054Zm-16.563-1.332a.942.942,0,0,0,.826,1.413l13.9-.215a.954.954,0,0,0,.919-.954.933.933,0,0,0-.286-.663.919.919,0,0,0-.661-.262l-13.906.211A.928.928,0,0,0,172.675,205.722Z" transform="translate(-171.349 -203.841)"/></g><g transform="translate(0 56.074)"><g transform="translate(0.597 0.371)"><path class="e" d="M166.8,193.369l-7.517,9.543s-1.3,1.081.06,3.984,7.921,16.741,7.921,16.741.489.258.743-.409c0,0-1.983-14.356,5.746-15.935" transform="translate(-158.717 -193.369)"/></g><path class="d" d="M168.548,223.751a1.155,1.155,0,0,1-.6.531,1.094,1.094,0,0,1-.87-.053l-.176-.092-.085-.18s-6.555-13.843-7.921-16.741c-1.386-2.949-.262-4.345.036-4.644l7.491-9.511.945.743-7.606,9.633c-.026.024-.9.882.22,3.267,1.137,2.41,5.86,12.386,7.419,15.678-.3-3.381-.713-14.175,6.328-15.614l.241,1.176c-7.1,1.448-5.292,15.127-5.272,15.264l.02.154-.054.144A1.745,1.745,0,0,1,168.548,223.751Z" transform="translate(-158.22 -193.06)"/></g><g transform="translate(34.67 55.562)"><g transform="translate(0.102 0.385)"><path class="e" d="M193.712,192.954l7.807,9.307s1.338,1.041.062,3.982-7.4,16.978-7.4,16.978-.481.271-.755-.388c0,0,1.542-14.409-6.232-15.748" transform="translate(-187.19 -192.954)"/></g><path class="d" d="M194.663,223.709l-.174.1a1.1,1.1,0,0,1-.869.074,1.236,1.236,0,0,1-.735-.756l-.06-.14.017-.152c.014-.138,1.394-13.866-5.737-15.093l.2-1.182c7.08,1.219,7.006,12.02,6.8,15.41,1.458-3.34,5.874-13.454,6.935-15.9,1.047-2.416.145-3.246.107-3.28L193.27,193.4l.919-.772,7.781,9.276c.3.288,1.474,1.65.18,4.638-1.277,2.943-7.407,16.979-7.407,16.979Z" transform="translate(-187.105 -192.633)"/></g><g transform="translate(5.079 0.002)"><g transform="translate(0.601 0.73)"><path class="f" d="M195.069,214.76c.037-.052.078-.106.115-.161.053-.073.1-.154.157-.234l.122-.185c.055-.084.11-.174.164-.262.042-.068.083-.137.125-.206.059-.095.115-.2.175-.3.041-.071.084-.148.125-.223.059-.11.119-.218.181-.335.042-.077.08-.158.124-.238.064-.124.128-.25.193-.383.032-.068.065-.144.1-.216q.36-.754.725-1.674c.035-.091.071-.18.107-.272.065-.17.128-.35.194-.529.038-.116.082-.227.124-.348.061-.179.125-.365.186-.551.043-.131.085-.26.127-.394.061-.193.121-.389.181-.589.042-.142.084-.283.128-.43.058-.206.116-.414.175-.631.041-.15.08-.3.121-.46.056-.226.116-.447.172-.679.041-.155.074-.318.113-.477.058-.246.116-.491.172-.745.03-.137.058-.28.088-.421.119-.562.232-1.155.341-1.768.024-.134.049-.263.073-.4.046-.274.09-.558.134-.843.034-.211.067-.419.1-.636.042-.278.082-.568.121-.855.032-.238.064-.474.095-.715.036-.292.072-.589.1-.889.029-.256.059-.515.088-.78.03-.3.061-.607.09-.917.026-.281.05-.567.076-.853.028-.312.053-.624.077-.947.008-.094.017-.181.022-.277l0,0c.175-2.435.28-5.114.286-8.079.049-25.8-19.534-38.91-19.534-38.91s-19.179,13.717-18.353,39.5c.095,2.949.277,5.605.525,8.024l-.006,0c.011.092.023.181.031.274.037.342.072.676.112,1.006.03.265.061.533.094.795q.061.484.125.955c.034.25.07.5.1.739.044.31.09.617.134.917.037.228.076.449.113.671.048.3.1.6.149.889.037.2.074.39.11.582.055.3.11.6.169.885,0,.023.01.041.012.061.149.733.3,1.424.466,2.09.032.139.066.283.1.419.064.256.13.5.194.745.041.157.083.314.127.468.062.232.127.455.193.681.043.151.089.3.134.45.064.215.13.424.2.63.046.144.091.282.138.423.064.2.134.4.2.586.046.132.092.259.138.386.068.185.136.372.206.55.043.116.088.228.131.343.071.175.14.354.211.522.04.09.074.175.114.263.257.606.516,1.153.768,1.652.04.074.078.15.115.221.068.131.134.256.2.377.042.079.085.158.128.234.065.116.128.223.193.331.044.074.088.148.131.218.062.1.124.2.184.292.044.071.086.138.131.2.06.089.116.175.173.259.044.061.085.12.127.179.056.079.11.157.164.23.043.055.082.1.121.157.052.071.1.139.156.2s.071.089.107.131c.1.125.2.239.292.342.026.029.056.062.08.091l.122.128.1.1c.037.037.071.07.1.1s.062.062.089.089.06.053.088.08.055.047.08.071a.916.916,0,0,0,.072.059l.065.058a.461.461,0,0,1,.056.041c.019.017.036.029.054.042s.025.017.035.025a.378.378,0,0,0,.037.026l.018.012.018.012,11.169-.174,11.17-.174.018-.014.014-.01.04-.029a.344.344,0,0,1,.032-.026c.018-.014.032-.029.054-.043l.052-.044c.022-.018.041-.037.065-.058s.046-.04.07-.062.05-.047.077-.073.056-.053.085-.083.059-.059.088-.091.067-.066.1-.106.067-.07.1-.1.076-.084.115-.13.058-.068.086-.1c.086-.1.176-.216.274-.342.035-.043.067-.086.1-.132C194.968,214.9,195.018,214.831,195.069,214.76Z" transform="translate(-162.952 -146.952)"/></g><path class="d" d="M196.477,213.959l-.543.869c-.048.074-.107.164-.166.246l-.073.1-.6-.2.489.348-.2.269c-.1.126-.193.246-.284.354l-.212.245c-.04.044-.085.095-.126.133-.116.127-.156.17-.2.206l-.175.168-.5-.361.4.444-.467.39-.173-.036-22.5.352-.533-.377,0,.006s-.04-.031-.077-.065l-.29-.271.335-.511-.439.41.342-.511-.433.416-.15-.16c-.163-.186-.265-.3-.375-.436l-.12-.15c-.044-.052-.1-.131-.163-.211l-1.063-1.588c-.066-.11-.133-.224-.2-.346l-.132-.24c-.067-.115-.137-.248-.208-.386l-.119-.226c-.258-.509-.523-1.069-.786-1.688l-.466-1.153c-.058-.145-.119-.312-.179-.479l-.169-.471c-.089-.253-.149-.425-.205-.6l-.139-.426c-.067-.209-.134-.421-.2-.642l-.134-.451c-.067-.228-.133-.455-.2-.691-.043-.151-.086-.314-.128-.477l-.274-1.077c-.185-.767-.342-1.466-.492-2.206-.065-.307-.113-.57-.161-.832l-1.077-7.611h.018c-.226-2.359-.382-4.862-.466-7.452a49.3,49.3,0,0,1,18.6-40.007l.337-.241.346.232c.2.133,19.85,13.585,19.8,39.41-.006,2.767-.1,5.435-.274,7.934l-.03.427c-.026.359-.053.675-.079.989l-.888,6.94c-.11.621-.224,1.219-.344,1.788l-.088.425q-.072.322-.146.635l-1.682,5.558c-.251.633-.5,1.2-.743,1.716Zm-2.294,1.219c.082-.1.168-.2.258-.322l.358-.49c.046-.062.091-.133.137-.2l.5-.8.52.3-.486-.36.738-1.419q.351-.736.707-1.635l1.032-3.065.828-3.366c.118-.555.229-1.141.338-1.749l.707-5.075.164-1.76c.026-.308.053-.618.076-.937l.022-.266c.18-2.534.276-5.238.282-8.045.044-23.282-16.322-36.251-18.923-38.163A48.6,48.6,0,0,0,170,161.314a46.756,46.756,0,0,0-6.319,25.241c.09,2.787.265,5.472.522,7.981h0l.988,6.9c.047.253.092.508.142.745.161.79.314,1.474.474,2.132l.292,1.152c.04.157.08.308.122.457.064.234.127.455.192.676l.132.442c.065.218.13.423.2.623l.439,1.294-.508.361.564-.205c.058.155.114.31.172.457l.447,1.107c.256.6.51,1.138.756,1.624l.113.216c.065.124.127.241.192.355l.131.239c.062.112.122.212.185.314l1,1.487c.05.068.095.127.138.18l.1.126c.1.125.2.234.283.332l.092.1-.337.514.433-.415-.336.516.42-.428.124.12-.35.5.505-.352.21.175,21.953-.355.649-.659.538.293Z" transform="translate(-162.452 -146.344)"/></g><g transform="translate(18.46 75.149)"><g transform="translate(0.591 0.6)"><path class="g" d="M180.438,229.474s13.454-20.231-.308-20.021S180.438,229.474,180.438,229.474Z" transform="translate(-174.092 -209.452)"/></g><path class="d" d="M182.418,227.647h0c-.789,1.365-1.357,2.222-1.382,2.258l-.482.727-.505-.712c-.367-.516-8.947-12.711-5.727-18.289,1-1.733,2.986-2.636,5.9-2.68,2.967-.044,5,.827,6.035,2.593C188.649,215.623,184.879,223.384,182.418,227.647Zm-1.9.834c.228-.368.523-.856.857-1.433h0c1.877-3.25,6.006-11.207,3.841-14.893-.8-1.366-2.479-2.039-4.98-2-2.462.037-4.1.737-4.878,2.08C172.935,216.435,178.731,225.779,180.521,228.482Z" transform="translate(-173.6 -208.952)"/></g><g transform="translate(15.958 27.151)"><g transform="translate(0.601 0.6)"><path class="c" d="M179.776,169.463h-.012a7.9,7.9,0,0,0,.226,15.805H180a7.9,7.9,0,0,0-.227-15.805Z" transform="translate(-172.016 -169.462)"/></g><path class="d" d="M187.313,181.721h0a8.508,8.508,0,1,1,1.137-4.385A8.516,8.516,0,0,1,187.313,181.721Zm-13.621-7.909a7.259,7.259,0,1,0,6.191-3.649A7.308,7.308,0,0,0,173.692,173.812Z" transform="translate(-171.515 -168.962)"/><g transform="translate(2.814 18.86)"><g transform="translate(0.599 0.6)"><path class="c" d="M179.556,185.176a5.3,5.3,0,0,0,.154,10.6h.01a5.3,5.3,0,0,0-.163-10.6Zm.148,10.105Z" transform="translate(-174.358 -185.176)"/></g><path class="d" d="M184.827,193.526h0a5.9,5.9,0,1,1,.787-3.039A5.913,5.913,0,0,1,184.827,193.526Zm-9.139-5.3a4.682,4.682,0,1,0,8.1,4.7h0a4.682,4.682,0,1,0-8.1-4.7Z" transform="translate(-173.859 -184.676)"/></g></g><g transform="translate(21.379 63.576)"><g transform="translate(0.6 0.603)"><path class="c" d="M182.4,204.2a9.964,9.964,0,0,0-.511-1.44,9.568,9.568,0,0,0-.654-1.209,8.727,8.727,0,0,0-.672-.933c-.1-.13-.215-.245-.3-.346s-.168-.185-.242-.253c-.139-.139-.224-.211-.224-.211l-.438.006-.149,0s-.083.077-.218.217a3.41,3.41,0,0,0-.235.259c-.088.1-.194.221-.29.354a8.406,8.406,0,0,0-.649.949,9.776,9.776,0,0,0-.623,1.229,9.555,9.555,0,0,0-.469,1.451,5.687,5.687,0,0,0-.184,1.613,7.525,7.525,0,0,0,.328,1.722,16.006,16.006,0,0,1,.427,1.773c.1.6.2,1.189.313,1.778s.23,1.159.344,1.718.241,1.1.364,1.608.235.991.347,1.44c.438,1.782.807,2.969.807,2.969h.145l.439-.008s.332-1.2.726-2.992c.1-.447.2-.935.306-1.448s.208-1.057.32-1.618.206-1.139.3-1.728.175-1.186.263-1.782a16.641,16.641,0,0,1,.379-1.786,7.333,7.333,0,0,0,.283-1.728A5.773,5.773,0,0,0,182.4,204.2Z" transform="translate(-176.532 -199.812)"/></g><path class="d" d="M180.61,219.587l-1.486.014-.131-.421c-.016-.049-.377-1.224-.815-3-.113-.45-.23-.936-.349-1.449-.076-.313-.149-.641-.222-.977l-.24-1.109c-.086-.417-.174-.841-.252-1.269s-.152-.837-.224-1.263l-.089-.52a16.3,16.3,0,0,0-.414-1.71,8.131,8.131,0,0,1-.35-1.865,6.3,6.3,0,0,1,.2-1.778,10.2,10.2,0,0,1,.5-1.54,9.981,9.981,0,0,1,.579-1.164l.083-.14a9.058,9.058,0,0,1,.691-1.013c.077-.106.173-.218.259-.317a4.712,4.712,0,0,1,.319-.354c.139-.146.234-.232.234-.232l.168-.152,1.035-.016.172.14s.1.085.266.251a3.614,3.614,0,0,1,.262.274c.158.172.248.271.332.378a8.964,8.964,0,0,1,.708.987,9.749,9.749,0,0,1,.693,1.281,10.221,10.221,0,0,1,.543,1.528,6.259,6.259,0,0,1,.248,1.775,7.932,7.932,0,0,1-.3,1.868,16.306,16.306,0,0,0-.364,1.718l-.083.574c-.059.412-.116.821-.184,1.225-.068.437-.146.874-.223,1.3l-.215,1.137q-.092.477-.185.931c-.1.513-.208,1.006-.308,1.457-.391,1.786-.72,2.972-.733,3.021Zm-2.255-17.453a8.583,8.583,0,0,0-.509,1.025,8.874,8.874,0,0,0-.441,1.361,5.094,5.094,0,0,0-.169,1.448,7.15,7.15,0,0,0,.306,1.587,16.97,16.97,0,0,1,.443,1.836l.088.52c.072.415.143.831.223,1.242s.162.839.246,1.246l.236,1.092c.072.33.144.652.218.963.118.51.235.989.346,1.436.187.759.361,1.413.5,1.908.125-.5.281-1.158.449-1.923.1-.445.2-.93.306-1.438.062-.3.12-.606.181-.918l.212-1.12c.074-.42.151-.849.22-1.282.066-.4.122-.8.18-1.2l.083-.574a17.1,17.1,0,0,1,.391-1.847,6.963,6.963,0,0,0,.264-1.586,5.112,5.112,0,0,0-.206-1.445,9.238,9.238,0,0,0-.48-1.354,8.85,8.85,0,0,0-.615-1.133,7.975,7.975,0,0,0-.627-.87c-.074-.094-.142-.168-.205-.235l-.084-.092c-.073-.08-.138-.154-.2-.212l-.049-.049-.106,0c-.012.011-.023.023-.036.036-.072.071-.136.143-.208.228-.122.143-.2.228-.266.323a7.967,7.967,0,0,0-.613.9Z" transform="translate(-176.032 -199.31)"/></g><g transform="translate(9.062)"><g transform="translate(0.796 0.732)"><path class="c" d="M195.441,164.951c-.435-.9-.888-1.768-1.354-2.6a48.17,48.17,0,0,0-13.453-15.4s-.146.107-.4.307h0c-.2.16-.471.377-.8.654l-.02.014c-.154.127-.322.274-.5.428l-.074.068c-.179.156-.366.324-.564.5l-.085.076c-.209.191-.424.389-.648.606,0,0-.008.008-.014.013-.218.206-.447.432-.683.666-.036.037-.071.071-.107.107-.23.229-.468.474-.711.725-.047.052-.095.1-.145.151-.246.259-.5.529-.754.809-.037.043-.076.086-.114.127-.253.281-.511.57-.771.875-.024.028-.046.05-.068.079-.269.308-.54.636-.814.971l-.161.2c-.266.33-.538.672-.808,1.025l-.161.21c-.28.37-.559.744-.839,1.135-.028.038-.055.079-.08.118q-.409.569-.811,1.173c-.038.056-.078.112-.118.17-.274.413-.55.838-.819,1.272-.053.086-.1.17-.16.258q-.405.655-.8,1.344c-.043.078-.089.155-.133.233-.275.489-.547.982-.813,1.494-.421.808-.832,1.647-1.221,2.516.188.083.388.166.589.248.068.026.139.054.208.084.137.054.276.11.418.164.085.034.17.066.257.1l.4.15c.092.035.187.067.28.1.139.05.281.1.42.148.095.034.19.066.286.1.15.05.3.1.455.148l.281.089c.176.054.355.108.537.158.074.024.15.046.227.067.521.146,1.062.288,1.624.419.078.018.156.037.236.053.2.047.409.094.617.136.1.022.2.04.3.059.2.041.39.074.588.114.107.017.214.038.32.054.2.035.4.068.6.1l.319.046c.216.035.436.061.658.089.1.012.191.026.287.037.259.031.523.056.789.083l.181.017c.664.06,1.346.1,2.039.121.086,0,.172,0,.259.007.258.006.521.01.786.011.04,0,.076,0,.116,0v0A37.411,37.411,0,0,0,195.441,164.951Z" transform="translate(-166.433 -146.952)"/></g><path class="d" d="M196.385,165.375l-.571.25a38.309,38.309,0,0,1-14.389,3.261l.01.038-.808-.025c-.367,0-.635-.006-.9-.012l-.162,0c-.808-.024-1.5-.067-2.176-.127h0l-.182-.016c-.306-.031-.557-.055-.8-.085l-.179-.023-.127-.622-.076.6c-.2-.024-.391-.049-.585-.08l-.316-.046c-.206-.03-.414-.064-.618-.1l-1.224-.23c-.211-.043-.423-.09-.629-.137l-.205-.047c-.6-.142-1.153-.284-1.684-.433l-3.793-1.307c-.247-.1-.451-.185-.645-.271l-.553-.242.248-.552c.376-.838.791-1.7,1.236-2.548.266-.516.544-1.017.822-1.511l.247-.432q.344-.594.695-1.165l.158-.254c.275-.444.555-.875.831-1.292l.07-.1c.323-.479.6-.876.874-1.259l.079-.119c.283-.395.564-.775.85-1.149l.163-.214c.271-.354.544-.7.815-1.035l.148-.181c.293-.359.569-.69.841-1,.326-.383.589-.677.845-.963l.1-.115c.275-.3.527-.571.777-.833l.131-.137c.26-.271.5-.519.735-.75l.1-.1c.242-.242.474-.471.7-.681l.035-.032c.205-.2.4-.38.6-.558l.107-.095c.22-.2.412-.372.594-.531l.586-.505c.331-.278.6-.489.793-.648l.188-.145c.176-.136.274-.206.274-.206l.339-.248.35.234a48.278,48.278,0,0,1,13.642,15.6c.489.873.949,1.758,1.371,2.632ZM180.513,167.7h.132a36.753,36.753,0,0,0,14.112-2.927c-.334-.667-.689-1.338-1.061-2a48.9,48.9,0,0,0-12.9-14.935l-.1.17-.143-.007c-.18.145-.38.308-.61.5l-.451.385-.485-.374.373.473c-.2.174-.383.34-.577.516l-.528-.332.406.442c-.192.178-.39.36-.6.559l-.086.082c-.211.2-.406.4-.6.594l-.114.112c-.221.221-.456.462-.7.711l-.127.134c-.259.271-.505.539-.761.816l-.12.132c-.239.266-.492.552-.749.853-.338.387-.606.709-.875,1.039l-.167.2c-.254.317-.523.655-.789,1l-.162.212c-.275.361-.551.731-.827,1.117l-.082.119q-.4.562-.8,1.156l-.616-.163.5.33c-.271.409-.543.831-.809,1.259l-.142.229c-.246.4-.472.775-.695,1.162l-.24.42c-.274.485-.541.971-.8,1.476-.336.645-.654,1.29-.951,1.928l.013.006,3.7,1.278q.772.22,1.6.414l.22.048c.214.05.415.095.618.137l1.174.221c.21.036.408.07.606.1l.308.046c.194.03.377.052.561.076l.373.048q.362.043.725.077l.138.013c.744.067,1.414.108,2.1.127l.27.008C180.008,167.694,180.26,167.695,180.513,167.7Z" transform="translate(-165.77 -146.342)"/></g></g></g></g></svg>